<?xml version="1.0" standalone="no"?>
<!DOCTYPE svg PUBLIC "-//W3C//DTD SVG 20010904//EN"
 "http://www.w3.org/TR/2001/REC-SVG-20010904/DTD/svg10.dtd">
<svg version="1.0" xmlns="http://www.w3.org/2000/svg"
 width="1075.000000pt" height="1280.000000pt" viewBox="0 0 1075.000000 1280.000000"
 preserveAspectRatio="xMidYMid meet">
<metadata>
Created by potrace 1.15, written by Peter Selinger 2001-2017
</metadata>
<g transform="translate(0.000000,1280.000000) scale(0.100000,-0.100000)"
fill="#000000" stroke="none">
<path d="M6670 12789 c-136 -12 -336 -37 -470 -60 -145 -25 -462 -98 -474
-110 -6 -5 -3 -31 7 -66 9 -32 13 -61 9 -64 -4 -3 -43 -16 -87 -29 -44 -12
-83 -25 -87 -29 -4 -3 8 -54 26 -113 l34 -107 -95 -32 c-57 -19 -93 -36 -90
-43 127 -331 456 -1251 450 -1256 -4 -5 -46 -23 -93 -41 -123 -48 -380 -176
-380 -189 0 -6 30 -65 67 -132 l67 -121 -22 -18 c-12 -9 -27 -19 -34 -21 -8
-3 -8 -10 1 -27 7 -12 11 -26 9 -30 -2 -5 -58 -45 -125 -90 -67 -45 -125 -86
-128 -92 -6 -9 15 -45 63 -107 l18 -24 129 87 129 87 18 -22 c22 -28 23 -36 1
-45 -29 -11 -203 -129 -203 -138 0 -4 19 -34 42 -65 22 -31 42 -58 43 -59 1
-2 48 28 106 67 57 38 107 70 110 70 6 0 32 -51 27 -54 -57 -33 -168 -111
-168 -118 0 -5 19 -35 41 -67 l41 -59 85 55 c80 52 85 54 98 37 8 -11 14 -23
15 -29 0 -5 -29 -28 -65 -50 -36 -22 -65 -43 -65 -47 0 -7 60 -97 81 -122 4
-4 34 10 67 33 34 23 63 41 65 41 3 0 12 -11 21 -24 15 -24 14 -25 -34 -56
-28 -18 -50 -35 -50 -38 0 -3 18 -34 41 -68 l40 -63 47 30 47 30 18 -23 c18
-22 18 -23 -1 -38 -11 -8 -28 -20 -37 -26 -17 -9 -15 -15 24 -72 23 -34 44
-62 47 -62 3 0 19 7 35 16 29 14 32 14 45 -3 18 -24 17 -29 -7 -46 -20 -15
-20 -16 21 -81 38 -60 44 -65 63 -55 17 9 23 8 34 -7 7 -10 11 -26 7 -36 -7
-22 61 -138 80 -138 8 0 19 -6 25 -14 10 -12 5 -20 -29 -42 -35 -23 -43 -25
-55 -13 -7 8 -109 151 -225 319 -117 168 -214 306 -215 307 -1 2 -10 -3 -20
-10 -16 -13 0 -38 214 -331 127 -174 231 -319 231 -321 0 -23 -49 36 -250 305
-128 171 -235 310 -239 310 -4 0 -12 -5 -19 -12 -6 -6 -13 -10 -16 -7 -2 2
-382 488 -846 1079 -463 591 -844 1077 -846 1079 -2 2 -35 -21 -73 -52 l-69
-56 -68 81 c-38 45 -74 88 -81 97 -10 14 -15 13 -40 -11 -16 -16 -34 -28 -40
-28 -6 0 -27 18 -46 41 l-35 40 -134 -124 c-162 -151 -390 -397 -493 -531
l-29 -38 44 -38 43 -37 -85 -114 c-46 -63 -97 -133 -113 -156 -15 -24 -32 -43
-37 -43 -5 0 -29 13 -53 30 l-43 30 -80 -128 c-117 -187 -207 -348 -288 -517
-98 -203 -97 -196 -34 -220 27 -11 50 -21 50 -23 0 -2 -13 -35 -30 -74 -17
-38 -30 -71 -30 -73 0 -2 48 -22 107 -45 60 -24 111 -46 116 -50 4 -3 -4 -37
-18 -73 -14 -37 -25 -69 -25 -71 0 -5 10 -9 725 -266 1008 -363 1029 -371
1039 -380 4 -5 -5 -50 -22 -102 -17 -51 -36 -112 -42 -136 -9 -33 -15 -42 -28
-38 -9 3 -294 75 -632 160 -2196 553 -2813 707 -2817 702 -3 -3 -14 -40 -24
-82 -10 -42 -20 -79 -23 -81 -3 -3 -77 11 -166 31 -88 20 -164 36 -169 36 -5
0 -14 -21 -20 -46 -9 -35 -15 -44 -29 -40 -56 16 -135 27 -142 19 -13 -14 -71
-355 -100 -593 -12 -106 -40 -433 -37 -437 2 -1 40 -5 86 -9 l83 -7 -6 -36
c-3 -20 -6 -93 -6 -163 l0 -128 -87 0 -86 0 6 -242 c8 -293 50 -785 69 -803 2
-2 34 0 72 6 37 6 73 8 80 6 8 -3 16 -31 20 -69 4 -35 11 -69 15 -77 6 -10 41
-7 175 15 91 15 169 25 171 22 3 -3 10 -34 16 -69 6 -35 14 -67 18 -71 4 -4
112 12 241 36 251 47 281 53 1700 322 509 96 1101 208 1315 249 1030 194 1259
238 1375 260 122 24 149 23 137 -7 -3 -9 -258 -68 -758 -176 -414 -90 -755
-165 -757 -167 -2 -1 10 -54 26 -117 20 -74 26 -115 19 -120 -5 -3 -61 -21
-123 -38 -63 -18 -114 -34 -114 -35 0 -10 72 -215 107 -305 41 -103 148 -335
171 -368 6 -9 35 3 118 48 60 33 112 60 116 60 4 0 16 -17 27 -38 l20 -39
-747 -436 c-411 -241 -753 -441 -759 -445 -10 -6 1 -30 38 -90 l50 -82 31 16
c29 15 32 15 41 -2 27 -47 149 -220 232 -329 148 -192 277 -337 474 -533 174
-173 183 -183 167 -200 -9 -10 -16 -23 -16 -28 0 -11 157 -144 168 -143 4 0
346 423 760 939 l753 938 80 -60 c44 -33 78 -66 76 -72 -3 -7 -89 -135 -192
-285 -102 -150 -189 -279 -192 -286 -3 -9 21 -31 69 -61 40 -26 75 -48 77 -50
1 -1 -27 -53 -64 -114 -37 -61 -65 -113 -64 -114 40 -33 505 -263 514 -254 2
2 24 56 50 121 26 64 49 117 51 117 2 0 33 -11 70 -25 36 -14 72 -25 80 -25 7
0 22 30 35 70 13 38 27 70 31 70 9 0 221 -61 226 -65 2 -1 -92 -371 -207 -821
-116 -451 -213 -831 -216 -845 -6 -25 -4 -26 74 -44 45 -10 81 -23 81 -29 0
-6 -9 -48 -19 -93 l-19 -82 47 -10 c25 -5 63 -13 84 -16 25 -5 37 -13 37 -24
0 -9 -17 -107 -37 -218 -20 -111 -35 -205 -32 -207 3 -3 52 -14 110 -23 93
-16 104 -21 102 -38 -1 -11 -19 -136 -39 -278 -20 -142 -34 -261 -30 -264 12
-12 452 -60 462 -50 3 2 12 116 20 253 8 137 17 264 20 283 l5 33 108 -6 108
-7 6 107 c4 59 7 160 7 225 l0 118 101 3 102 3 -2 93 -2 92 53 0 c29 0 70 3
91 6 35 6 37 9 37 43 0 20 -3 52 -6 71 l-6 35 -159 -3 -159 -3 0 54 0 54 156
6 c86 3 157 7 159 9 1 2 -6 154 -16 338 -10 184 -18 367 -18 407 l-1 72 63
-29 c34 -15 107 -43 162 -61 55 -18 104 -36 108 -40 7 -6 36 -177 37 -216 0
-7 11 -13 24 -13 61 0 335 56 528 108 l106 29 17 -44 c10 -24 15 -46 13 -49
-17 -17 -359 -100 -533 -129 -55 -9 -101 -18 -102 -19 -3 -3 49 -379 53 -385
11 -13 462 83 630 134 45 14 86 25 91 25 9 0 37 -70 38 -94 0 -5 -18 -15 -40
-23 -68 -24 -343 -91 -485 -118 -74 -14 -145 -28 -157 -31 -28 -5 -28 2 5
-209 l27 -170 30 3 c101 10 534 109 702 161 l62 19 22 -54 c12 -30 20 -56 18
-58 -26 -24 -499 -142 -706 -176 -67 -11 -73 -14 -68 -33 5 -23 55 -332 55
-342 0 -20 484 87 729 161 62 19 119 34 125 34 13 0 62 -107 54 -116 -21 -21
-462 -136 -688 -180 -80 -15 -147 -29 -149 -31 -2 -1 9 -81 25 -178 19 -121
32 -175 41 -175 23 0 274 50 398 80 106 25 342 91 478 133 47 15 48 15 57 -6
4 -12 18 -44 29 -71 12 -27 20 -50 19 -51 -2 -1 -55 -21 -118 -45 -387 -143
-668 -267 -787 -346 -214 -142 -178 -252 98 -300 114 -20 396 -14 554 11 116
18 315 63 432 98 l81 24 151 -301 c167 -334 375 -721 388 -721 4 0 32 9 61 19
40 14 52 22 48 34 -3 10 -17 69 -31 132 -43 190 -74 315 -127 510 -79 292 -88
332 -88 387 0 72 24 95 185 184 164 90 289 172 434 285 215 167 337 311 348
408 20 175 -294 131 -1016 -145 -85 -33 -155 -59 -157 -59 -5 0 -47 141 -43
145 2 2 65 31 139 65 179 81 425 209 585 305 72 42 131 78 133 80 3 3 -166
275 -182 293 -10 10 -37 -2 -142 -64 -132 -79 -451 -244 -581 -301 l-72 -31
-20 61 c-12 33 -20 61 -18 62 1 1 112 56 247 123 297 146 543 290 534 312 -8
21 -185 300 -190 300 -3 0 -69 -38 -147 -84 -144 -85 -374 -206 -502 -264
l-70 -31 -17 42 c-9 23 -17 49 -17 58 -1 10 69 50 212 122 196 98 464 250 494
280 10 9 -8 43 -89 167 -55 85 -101 156 -103 158 -1 1 -49 -26 -106 -61 -156
-96 -521 -287 -548 -287 -4 0 -13 17 -20 37 -8 21 -16 43 -18 50 -3 6 62 45
155 91 177 89 285 149 412 230 47 30 86 56 88 57 3 3 -192 302 -208 319 -5 4
-57 -22 -117 -60 -59 -37 -190 -110 -291 -162 l-182 -94 -16 37 c-8 21 -14 38
-12 40 2 2 32 15 68 30 901 377 1423 1363 1175 2220 -123 422 -418 781 -840
1020 -104 59 -105 60 -99 91 5 26 2 33 -13 38 -10 3 -103 26 -208 51 -104 26
-215 55 -245 65 -60 20 -170 52 -237 70 -37 9 -43 14 -43 38 0 59 -12 59 377
3 197 -29 370 -54 386 -57 23 -5 27 -2 27 18 0 23 -2 23 -388 71 -213 27 -387
50 -387 50 0 1 2 72 5 157 l5 155 385 38 c211 21 386 40 388 42 7 7 -29 216
-54 310 -30 118 -76 247 -122 348 -19 42 -33 79 -31 81 2 2 145 74 317 160
l313 157 -40 76 c-22 42 -39 78 -38 79 1 1 42 25 90 54 l88 51 -22 37 c-84
138 -261 382 -278 382 -5 0 -41 -27 -80 -60 -40 -33 -75 -60 -79 -60 -4 0 -29
25 -57 55 l-50 55 -98 -91 -97 -91 -83 78 c-98 92 -254 224 -266 224 -16 0
-93 -111 -87 -126 9 -23 -13 -55 -34 -52 -23 4 -113 -115 -99 -129 6 -6 3 -17
-8 -31 l-18 -21 -101 67 c-55 37 -133 85 -172 105 -40 21 -72 43 -72 48 0 6
110 235 245 511 135 275 245 504 245 508 0 6 -124 67 -186 90 -13 5 -24 16
-24 24 0 7 20 62 45 122 33 80 41 110 32 116 -25 16 -346 118 -448 142 -102
25 -253 56 -255 53 -1 -1 -11 -58 -22 -126 -12 -68 -23 -125 -24 -127 -2 -1
-50 4 -107 12 -57 8 -106 12 -108 10 -3 -2 -7 -31 -10 -64 l-6 -60 87 -12 86
-12 0 -32 c0 -55 -8 -59 -95 -47 -90 13 -95 10 -95 -56 0 -46 -2 -45 109 -59
l53 -6 -5 -40 c-3 -22 -7 -42 -10 -44 -2 -3 -38 -1 -78 5 -41 5 -78 5 -82 1
-5 -4 -7 -29 -5 -56 l3 -49 74 -9 73 -8 -6 -30 c-3 -17 -6 -37 -6 -44 0 -12
-15 -13 -80 -8 l-80 7 0 -55 0 -56 65 -7 c36 -3 66 -10 69 -13 2 -4 1 -24 -2
-45 l-4 -38 -74 6 -74 7 0 -55 0 -55 63 -9 c34 -4 61 -11 60 -15 -2 -5 -3 -24
-3 -44 l0 -36 -67 4 -68 3 -5 -52 c-5 -50 -5 -52 24 -57 15 -3 39 -6 53 -6 29
0 37 -19 29 -64 l-6 -33 -52 8 c-29 5 -56 5 -59 1 -4 -4 -9 -29 -11 -55 -4
-52 -2 -53 67 -59 29 -3 30 -5 28 -47 -1 -24 -3 -45 -5 -46 -2 -2 -25 0 -51 5
-26 4 -49 4 -51 1 -3 -3 -6 -29 -7 -56 l-3 -50 42 -6 c23 -3 44 -8 47 -11 3
-3 3 -24 -1 -46 l-6 -41 -49 6 c-48 6 -49 5 -49 -21 0 -21 -5 -26 -25 -26 -23
0 -24 2 -19 48 7 73 94 1297 94 1330 0 29 0 29 -70 34 -39 3 -73 8 -76 10 -5
5 20 1299 31 1636 l6 172 -94 0 -95 0 -7 116 -8 116 -77 -4 -78 -3 -7 67 -7
68 -32 -1 c-17 -1 -74 -5 -126 -10z m328 -825 l3 -121 -108 -6 c-59 -3 -111
-2 -115 1 -3 4 -8 59 -10 122 l-3 115 95 6 c151 9 135 22 138 -117z m-334 -19
c4 -49 9 -97 12 -106 4 -14 -13 -18 -106 -29 -61 -7 -113 -11 -115 -8 -7 6
-39 227 -34 232 2 2 54 10 114 18 129 16 119 24 129 -107z m-329 -53 c9 -57
14 -106 10 -110 -3 -4 -53 -16 -109 -28 l-103 -21 -27 115 c-15 63 -24 117
-21 120 3 4 54 16 113 28 77 15 109 18 113 10 3 -6 14 -57 24 -114z m-330 -63
c16 -63 24 -114 19 -119 -16 -14 -197 -61 -205 -53 -13 14 -71 214 -64 221 8
8 183 60 206 61 13 1 23 -24 44 -110z m999 -136 c3 -21 6 -75 6 -119 l0 -81
-101 -8 c-55 -4 -102 -5 -104 -3 -1 1 -7 56 -12 120 -10 136 -21 124 118 127
l86 1 7 -37z m-310 -50 c4 -38 9 -91 12 -119 l6 -51 -84 -11 c-133 -19 -122
-26 -137 81 -7 50 -15 104 -18 118 -5 26 -3 27 64 36 37 6 87 11 109 12 l42 1
6 -67z m-300 -91 c11 -61 17 -115 13 -118 -7 -7 -189 -46 -193 -42 -5 6 -56
229 -53 233 7 6 184 44 199 42 10 -2 20 -33 34 -115z m-300 -68 c16 -63 27
-116 25 -118 -6 -5 -193 -56 -195 -53 -2 3 -65 210 -67 221 -2 9 162 64 193
65 12 1 23 -28 44 -115z m920 -221 c3 -64 4 -119 0 -122 -3 -3 -45 -8 -94 -9
l-88 -4 -6 44 c-3 23 -8 78 -11 120 l-6 77 43 4 c24 2 68 4 99 5 l56 2 7 -117z
m-293 95 c0 -2 6 -56 12 -120 l13 -116 -41 -6 c-96 -13 -145 -18 -146 -15 0 2
-8 56 -18 119 -10 63 -18 116 -17 117 6 7 195 27 197 21z m-266 -145 c9 -59
19 -112 22 -119 2 -7 -26 -17 -79 -28 -46 -9 -88 -16 -94 -16 -14 0 -68 220
-57 231 9 8 135 36 169 38 19 1 23 -9 39 -106z m-274 -64 c16 -57 29 -109 29
-115 0 -6 -40 -22 -89 -35 l-88 -25 -37 114 c-20 63 -35 116 -34 117 7 7 174
53 182 51 5 -1 22 -49 37 -107z m-2003 8 l70 -84 -91 -81 c-51 -44 -120 -107
-155 -138 l-64 -57 -76 76 -76 77 39 41 c54 56 268 249 276 249 4 0 38 -38 77
-83z m2842 -252 l0 -125 -85 0 -85 0 0 38 c0 20 -3 74 -7 119 l-6 82 59 4 c32
2 74 4 92 5 l32 2 0 -125z m-251 -11 c6 -64 10 -119 7 -121 -4 -5 -120 -22
-147 -23 -14 0 -20 22 -34 115 -10 64 -16 118 -13 120 6 6 108 22 149 24 26 1
26 1 38 -115z m-255 -16 c27 -154 33 -139 -59 -159 -44 -10 -80 -17 -81 -16
-6 8 -53 231 -50 235 7 7 116 30 147 31 26 1 27 -2 43 -91z m-270 25 c23 -80
57 -215 54 -217 -13 -12 -152 -46 -158 -39 -4 4 -22 55 -40 112 -36 117 -38
111 50 136 30 9 60 18 65 20 19 7 24 5 29 -12z m-2504 -165 l78 -73 -62 -70
c-35 -38 -94 -109 -133 -157 l-71 -87 -86 66 c-47 36 -86 69 -86 73 0 15 260
320 273 320 5 0 44 -33 87 -72z m855 -83 l66 -80 -48 -44 c-26 -24 -85 -78
-131 -119 l-83 -75 -75 74 c-40 40 -74 77 -74 81 0 17 258 251 271 246 4 -2
37 -39 74 -83z m1360 33 c27 -67 29 -65 -95 -117 -63 -26 -134 -57 -157 -69
-23 -12 -47 -22 -52 -22 -10 0 -51 71 -51 88 0 4 24 19 53 32 143 64 273 120
280 120 4 0 14 -15 22 -32z m1075 -137 l0 -119 -72 -4 c-40 -3 -74 -4 -75 -4
-4 2 -19 232 -16 239 2 4 40 7 84 7 l79 0 0 -119z m-236 77 c11 -68 18 -205
10 -211 -5 -2 -38 -6 -74 -8 l-64 -4 -18 114 c-10 63 -16 116 -14 119 5 4 95
19 132 21 17 1 23 -6 28 -31z m-219 -95 c9 -54 19 -108 22 -120 5 -23 -14 -31
-108 -48 l-35 -7 -27 118 c-15 64 -26 118 -25 120 2 2 124 29 149 33 4 1 14
-43 24 -96z m-2597 -17 l75 -73 -89 -104 c-49 -57 -102 -121 -118 -141 -16
-21 -32 -38 -37 -38 -11 0 -169 121 -169 130 0 17 238 300 252 300 6 0 44 -33
86 -74z m3754 63 c29 -6 56 -14 60 -18 9 -9 -36 -196 -48 -196 -32 1 -104 18
-109 25 -8 13 26 200 36 200 4 0 32 -5 61 -11z m-1372 -120 c16 -63 28 -115
26 -116 -2 -2 -33 -12 -70 -22 -48 -13 -69 -15 -72 -7 -44 119 -71 218 -61
222 30 11 142 41 145 38 2 -1 17 -53 32 -115z m678 -260 l3 -117 -61 -7 c-34
-4 -64 -5 -66 -2 -8 8 -25 219 -19 235 3 9 23 12 72 10 l68 -3 3 -116z m-206
52 c3 -30 8 -84 10 -120 l3 -66 -59 -7 c-33 -4 -61 -6 -63 -4 -6 6 -41 230
-38 235 5 5 107 19 125 17 10 -1 17 -18 22 -55z m1046 34 c29 -9 52 -19 52
-23 0 -11 -56 -182 -62 -187 -7 -7 -108 24 -108 34 0 4 6 30 14 57 8 27 20 68
26 92 6 23 14 42 19 42 4 0 31 -7 59 -15z m-2134 -17 c21 -29 20 -35 -4 -48
-16 -9 -22 -6 -36 21 -13 26 -14 33 -2 40 20 13 25 11 42 -13z m885 -40 c22
-111 32 -180 27 -185 -6 -7 -77 -22 -102 -23 -19 0 -24 11 -43 93 -33 147 -35
139 29 153 30 6 60 12 67 13 6 1 16 -22 22 -51z m-1624 -68 c37 -44 65 -84 63
-89 -1 -5 -50 -50 -106 -101 l-104 -93 -74 74 c-41 40 -74 79 -74 85 0 11 209
203 222 204 3 0 36 -36 73 -80z m1162 45 c10 -30 9 -35 -9 -41 -11 -3 -21 -4
-22 -2 -1 1 -8 16 -14 32 -11 24 -11 31 0 37 24 16 35 9 45 -26z m262 -12 c5
-21 17 -66 26 -100 8 -34 18 -69 21 -77 4 -10 -9 -18 -49 -30 -30 -9 -60 -16
-66 -16 -5 0 -24 46 -41 102 -18 55 -34 107 -37 114 -3 8 13 18 44 27 79 25
91 22 102 -20z m-1975 -117 l80 -73 -70 -79 c-38 -44 -85 -99 -104 -123 l-36
-44 -87 67 c-48 37 -87 69 -87 71 0 13 209 255 219 255 4 0 42 -33 85 -74z
m-824 -1 c49 -35 77 -61 73 -68 -3 -7 -32 -50 -63 -97 -31 -47 -73 -113 -94
-147 -21 -35 -40 -63 -43 -63 -15 0 -183 103 -183 112 0 30 200 330 216 324 7
-3 50 -30 94 -61z m2360 26 c6 -17 9 -35 5 -40 -12 -20 -33 -11 -45 20 -11 26
-11 32 1 40 21 13 26 11 39 -20z m-784 -183 c84 -101 82 -94 32 -136 -23 -20
-67 -59 -96 -86 l-53 -50 -80 80 -80 81 102 91 c57 51 106 92 109 92 3 0 33
-32 66 -72z m1838 -63 c4 -63 5 -119 1 -125 -3 -5 -30 -10 -59 -10 l-53 0 -7
92 c-11 162 -14 154 70 157 l41 1 7 -115z m-181 68 c3 -21 9 -77 13 -125 l7
-88 -34 0 c-19 0 -43 -3 -55 -6 -20 -5 -22 1 -39 111 -10 66 -14 120 -9 125 5
5 29 10 54 13 25 2 48 4 51 5 4 1 9 -15 12 -35z m1153 1 c22 -9 40 -17 42 -19
1 -1 -11 -34 -28 -74 -17 -39 -35 -83 -40 -96 -9 -24 -10 -24 -47 -9 -21 9
-42 20 -47 24 -11 11 53 190 69 190 7 0 30 -7 51 -16z m-3321 -69 l80 -74 -41
-43 c-22 -24 -62 -70 -89 -103 -27 -33 -52 -64 -56 -68 -6 -8 -179 119 -179
131 0 13 188 232 199 232 3 -1 42 -34 86 -75z m1990 53 c11 -48 35 -184 35
-199 0 -11 -16 -19 -51 -27 -29 -7 -53 -11 -54 -10 -1 2 -12 46 -24 98 -12 52
-24 105 -27 117 -5 19 0 23 38 31 67 15 77 14 83 -10z m-420 -30 c10 -25 10
-35 2 -40 -19 -12 -24 -10 -37 23 -11 26 -11 32 1 40 19 12 18 13 34 -23z
m270 -95 c15 -60 28 -112 29 -117 1 -10 -94 -40 -101 -32 -10 9 -73 210 -70
220 3 10 69 33 98 35 12 1 23 -25 44 -106z m-500 17 c9 -17 13 -35 10 -40 -12
-19 -33 -10 -45 21 -11 26 -11 32 1 40 19 12 16 13 34 -21z m-3002 -47 c49
-27 91 -53 94 -59 2 -7 -20 -61 -50 -120 -29 -60 -66 -139 -82 -176 -15 -38
-32 -68 -37 -68 -13 0 -181 70 -191 79 -4 4 2 30 13 57 42 99 153 334 158 334
2 0 45 -21 95 -47z m4540 13 c20 -5 27 -12 27 -29 0 -25 -36 -166 -44 -174 -5
-5 -86 6 -86 12 0 3 28 147 36 183 3 16 10 22 22 18 9 -2 29 -7 45 -10z
m-3425 -57 c48 -34 89 -63 90 -65 2 -1 -18 -35 -45 -76 -27 -40 -66 -101 -87
-136 -36 -60 -39 -62 -60 -49 -11 7 -54 33 -93 56 -40 23 -73 45 -73 49 0 11
171 282 178 282 2 0 42 -28 90 -61z m786 -75 l76 -72 -80 -93 c-44 -52 -84
-95 -90 -97 -11 -4 -170 117 -170 129 0 19 169 211 181 207 3 -2 41 -35 83
-74z m-1608 -35 c54 -29 93 -56 90 -63 -2 -6 -36 -80 -75 -164 -39 -83 -71
-157 -71 -163 0 -6 -6 -9 -12 -6 -7 3 -53 22 -103 42 -49 20 -92 39 -94 41 -7
6 156 364 166 364 2 0 47 -23 99 -51z m2879 -19 c18 -36 19 -37 0 -44 -17 -6
-50 48 -40 64 11 17 24 11 40 -20z m-1788 -61 c46 -34 82 -66 80 -73 -5 -13
-120 -194 -139 -218 -12 -15 -20 -13 -97 32 -46 26 -87 52 -93 58 -6 6 6 34
33 78 57 94 119 184 125 184 3 0 44 -28 91 -61z m4351 -143 c92 -89 93 -90 73
-109 -19 -20 -20 -19 -128 78 -170 154 -156 137 -137 163 l15 23 42 -33 c23
-18 84 -73 135 -122z m-2359 92 c9 -24 8 -33 -1 -40 -14 -9 -43 46 -33 63 11
17 23 9 34 -23z m-798 -40 c29 -35 61 -72 71 -84 18 -20 17 -21 -58 -89 l-76
-68 -79 79 -80 79 78 72 c43 40 81 73 85 73 3 0 30 -28 59 -62z m2175 26 c13
-3 24 -10 24 -15 0 -10 -71 -189 -75 -189 -16 0 -65 25 -65 33 0 7 14 51 32
100 23 65 35 87 45 82 8 -3 26 -8 39 -11z m-3786 -212 c0 -4 -4 -12 -9 -17 -5
-6 -35 -66 -66 -135 -31 -69 -58 -127 -61 -129 -4 -4 -184 67 -197 79 -7 6 54
154 109 261 l24 49 100 -50 c55 -28 100 -54 100 -58z m4512 71 c24 -20 76 -68
115 -107 68 -66 72 -71 56 -88 -17 -19 -43 -24 -43 -9 0 5 -49 53 -110 107
-104 92 -109 99 -93 116 22 25 27 23 75 -19z m-3107 -116 l80 -74 -27 -34
c-15 -19 -44 -54 -65 -78 l-39 -44 -87 67 c-77 60 -86 70 -75 85 24 33 123
150 128 150 3 1 41 -32 85 -72z m3748 38 c22 -30 21 -32 -36 -73 l-45 -32 -17
27 -18 27 44 38 c24 21 46 38 49 38 3 0 13 -12 23 -25z m-2827 -26 c10 -21 12
-35 6 -41 -12 -12 -46 47 -37 62 9 15 13 12 31 -21z m-1373 -67 c42 -31 77
-59 77 -63 0 -6 -105 -177 -115 -187 -3 -4 -169 85 -193 104 -3 2 58 104 105
175 14 22 30 36 37 32 6 -3 46 -31 89 -61z m-718 -156 c-29 -61 -55 -121 -59
-132 -7 -22 -8 -21 -111 20 -92 36 -104 43 -99 61 4 11 33 75 65 143 l58 124
99 -53 99 -53 -52 -110z m3844 123 c93 -63 201 -151 260 -213 37 -37 42 -46
28 -52 -12 -4 -41 17 -101 73 -46 44 -131 112 -190 152 -94 64 -119 91 -84 91
6 0 45 -23 87 -51z m-839 -104 c0 -24 -3 -25 -53 -25 -61 0 -67 3 -60 31 4 16
14 19 59 19 51 0 54 -1 54 -25z m781 -92 c42 -30 108 -83 148 -120 68 -62 71
-66 55 -84 -16 -18 -19 -16 -83 42 -69 64 -210 174 -215 168 -22 -28 -66 -100
-66 -107 0 -5 30 -32 68 -60 37 -28 92 -73 122 -101 52 -47 54 -50 38 -67 -16
-16 -20 -14 -83 44 -60 57 -190 155 -218 165 -12 5 25 82 80 170 28 44 16 48
154 -50z m1079 45 c8 -13 0 -22 -41 -49 -50 -31 -52 -32 -65 -14 -21 29 -17
38 34 71 48 32 50 31 72 -8z m-3059 -48 c35 -44 64 -84 64 -88 0 -4 -22 -27
-48 -51 l-48 -45 -80 80 -80 79 57 53 c31 28 60 52 64 52 3 0 35 -36 71 -80z
m3341 50 l17 -29 -52 -30 -52 -30 -17 22 c-10 12 -18 25 -18 29 0 6 89 66 100
67 3 1 13 -12 22 -29z m-8155 -21 c76 -17 139 -32 140 -33 1 0 -7 -44 -18 -96
-11 -52 -28 -142 -37 -200 l-18 -105 -29 3 c-48 5 -279 42 -282 45 -5 6 59
367 72 405 6 17 16 16 172 -19z m3541 -92 c50 -26 92 -49 92 -50 0 -2 -20 -48
-45 -103 -34 -75 -49 -99 -63 -97 -10 1 -57 18 -104 38 -85 36 -87 37 -77 62
23 61 93 203 98 201 3 -2 48 -25 99 -51z m-2960 -41 c3 -4 -6 -70 -21 -149
-14 -78 -29 -159 -33 -181 l-7 -38 -51 6 c-28 4 -97 14 -153 23 l-103 16 0 29
c0 25 55 325 65 354 2 8 50 1 150 -21 81 -19 149 -36 153 -39z m6816 15 c16
-18 15 -20 -34 -56 -28 -21 -52 -36 -53 -34 -2 2 -8 11 -15 20 -10 14 -5 22
35 53 25 20 47 36 48 36 1 0 10 -8 19 -19z m-3144 -52 c47 -33 84 -65 83 -69
-3 -12 -80 -130 -86 -133 -13 -5 -195 108 -190 117 40 67 94 146 100 146 5 0
46 -27 93 -61z m404 -14 l79 -74 -39 -47 c-21 -26 -42 -52 -45 -57 -6 -9 -179
119 -179 132 0 9 92 121 99 121 3 -1 42 -34 85 -75z m3087 -36 c12 -24 11 -25
-55 -61 -38 -19 -40 -20 -53 -2 -18 25 -18 26 35 56 57 33 58 33 73 7z m-6398
-78 c70 -15 130 -31 133 -34 3 -2 -6 -64 -20 -136 -14 -72 -26 -140 -26 -152
0 -17 -5 -20 -27 -15 -16 3 -77 12 -138 21 -159 23 -156 22 -151 48 3 12 17
86 32 164 25 135 27 143 48 138 11 -3 79 -18 149 -34z m3257 -124 c0 -4 -16
-32 -36 -62 l-37 -55 -61 36 c-33 19 -76 42 -93 51 -18 9 -33 22 -33 27 0 6
18 39 40 73 l41 62 89 -62 c49 -34 89 -65 90 -70z m-392 -22 c1 -1 -14 -36
-34 -78 l-36 -76 -46 19 c-26 10 -72 28 -102 40 -30 12 -56 23 -58 24 -1 2 16
42 38 90 l40 87 97 -52 c54 -29 99 -53 101 -54z m-2415 46 c70 -15 130 -30
132 -33 3 -2 -4 -49 -14 -104 -10 -54 -22 -115 -25 -135 l-6 -36 -151 23 c-83
12 -154 25 -157 28 -5 6 14 132 38 244 10 46 14 51 33 47 12 -3 80 -18 150
-34z m1609 -26 c100 -36 188 -68 195 -70 8 -2 3 -30 -16 -92 -23 -74 -31 -87
-47 -85 -37 7 -376 100 -381 105 -5 6 54 207 61 207 2 0 87 -29 188 -65z
m3677 41 c18 -21 -75 -92 -96 -74 -13 10 -8 18 28 50 50 42 52 43 68 24z m279
-29 c2 -10 -13 -25 -41 -41 -51 -30 -63 -32 -71 -11 -4 11 9 25 41 45 50 32
66 33 71 7z m111 -134 c31 -63 89 -224 111 -313 12 -47 24 -93 26 -102 4 -13
0 -18 -14 -18 -16 0 -22 12 -32 63 -19 90 -65 228 -105 315 -27 58 -32 77 -23
84 7 4 14 8 15 8 2 0 11 -17 22 -37z m-4814 -43 c55 -12 116 -26 136 -31 l36
-9 -20 -102 c-10 -57 -20 -104 -22 -106 -2 -2 -71 7 -154 19 -174 26 -161 12
-136 150 20 108 22 111 42 105 10 -2 63 -14 118 -26z m1615 -145 c168 -60 309
-112 314 -116 4 -4 2 -27 -6 -51 -11 -32 -20 -42 -34 -41 -20 2 -807 213 -812
218 -1 1 9 39 23 83 l26 81 92 -33 c51 -18 229 -82 397 -141z m3052 38 c39
-95 83 -238 89 -288 3 -21 -1 -31 -12 -33 -13 -2 -21 13 -34 70 -21 87 -70
228 -97 281 -20 40 -18 72 5 65 6 -3 29 -45 49 -95z m-4197 3 c85 -19 149 -38
148 -44 -2 -6 -8 -44 -14 -84 -7 -40 -15 -76 -18 -80 -7 -7 -296 33 -306 43
-7 8 25 199 34 199 3 -1 74 -16 156 -34z m-2312 -12 c73 -9 133 -17 135 -19 3
-3 -17 -263 -24 -312 l-5 -32 -92 5 c-51 3 -120 7 -154 10 l-63 6 0 45 c0 53
19 283 25 301 6 16 19 15 178 -4z m6325 -56 c32 -77 66 -188 77 -250 6 -31 4
-38 -9 -38 -10 0 -19 15 -26 43 -25 99 -54 186 -80 244 -15 34 -26 64 -22 67
16 17 32 -1 60 -66z m-5853 1 c61 -6 113 -14 117 -18 5 -5 0 -84 -18 -259 l-5
-52 -127 5 c-70 4 -141 8 -157 11 l-30 4 7 98 c3 53 10 128 13 165 l7 69 42
-6 c22 -3 91 -11 151 -17z m410 -49 c55 -6 115 -14 134 -17 l33 -6 -6 -81 c-4
-44 -9 -107 -13 -139 l-6 -58 -151 6 c-83 4 -154 10 -157 14 -6 6 6 209 16
269 5 27 10 31 28 27 12 -2 67 -9 122 -15z m483 -57 l144 -16 -6 -41 c-3 -23
-8 -78 -12 -123 l-7 -83 -37 0 c-20 0 -92 3 -159 7 l-123 6 6 51 c3 28 8 88
12 134 5 66 10 82 23 82 9 0 81 -7 159 -17z m1860 -29 l134 -29 -7 -44 c-9
-58 -14 -71 -32 -71 -23 0 -288 41 -292 45 -2 2 2 34 9 70 11 60 15 66 34 63
11 -3 81 -18 154 -34z m-1375 -27 c59 -7 108 -15 108 -20 1 -4 -2 -52 -6 -107
l-7 -100 -62 0 c-33 0 -105 3 -160 7 l-98 6 6 76 c4 42 9 95 13 119 l5 42 47
-6 c25 -3 95 -11 154 -17z m564 -71 c2 -2 0 -43 -4 -91 l-8 -88 -90 2 c-49 1
-121 4 -159 8 l-68 6 7 86 c10 131 -8 120 167 99 83 -10 153 -20 155 -22z
m315 -33 l147 -16 -5 -66 c-3 -36 -7 -71 -9 -77 -3 -12 -174 -10 -272 2 -41 5
-43 7 -43 37 0 64 13 137 24 137 6 0 77 -7 158 -17z m453 -53 c154 -16 145
-12 145 -75 0 -29 -4 -56 -8 -59 -4 -2 -75 -1 -157 2 l-150 7 -3 29 c-2 17 -1
50 3 74 6 43 7 44 38 38 18 -3 77 -10 132 -16z m-3993 -322 c2 -112 3 -204 2
-206 -3 -5 -307 -23 -311 -18 -2 2 -7 99 -10 215 l-6 211 160 0 161 0 4 -202z
m460 6 c2 -102 0 -188 -3 -190 -3 -2 -74 -6 -156 -10 l-150 -7 -6 63 c-4 35
-7 123 -7 196 l0 134 160 0 159 0 3 -186z m334 176 l124 0 0 -173 0 -174 -151
-7 c-84 -4 -155 -4 -158 0 -8 8 -15 330 -7 350 5 12 14 15 37 10 18 -3 87 -6
155 -6z m1042 -156 l3 -141 -122 -6 c-67 -4 -139 -7 -161 -7 l-38 0 0 150 0
151 158 -3 157 -3 3 -141z m920 15 l3 -107 -103 -6 c-57 -3 -128 -7 -158 -8
l-55 -2 -3 117 -3 118 158 -3 158 -3 3 -106z m906 90 c2 -2 6 -36 8 -76 l5
-72 -61 -5 c-33 -3 -105 -8 -158 -10 l-98 -5 0 91 0 91 150 -5 c83 -3 152 -7
154 -9z m480 -236 c4 -31 3 -59 -1 -63 -10 -9 -296 -51 -302 -44 -6 6 -21 128
-16 133 3 3 222 25 291 30 19 1 22 -6 28 -56z m-459 -30 c3 -27 8 -60 10 -75
4 -22 0 -29 -18 -33 -21 -5 -280 -45 -291 -45 -2 0 -8 35 -11 78 -4 42 -8 82
-9 87 -1 8 145 25 286 33 25 2 27 -2 33 -45z m-460 -15 c3 -13 6 -54 8 -92 l2
-70 -150 -22 c-82 -13 -151 -22 -152 -20 -5 4 -23 140 -23 172 l0 31 113 10
c190 17 196 16 202 -9z m1319 -23 c7 -20 -21 -32 -37 -16 -9 9 -8 14 3 21 21
13 27 12 34 -5z m-177 -49 c-4 -9 -18 -16 -32 -16 -33 0 -36 37 -2 42 28 5 41
-6 34 -26z m-2052 -53 c4 -43 11 -99 15 -125 7 -45 6 -47 -19 -52 -46 -10
-285 -45 -287 -43 -4 4 -34 261 -30 264 2 2 70 10 152 17 82 8 152 14 156 15
3 0 9 -34 13 -76z m-921 -25 c8 -41 34 -283 31 -286 -7 -8 -301 -50 -307 -44
-7 8 -38 249 -38 299 l0 31 123 9 c194 16 186 16 191 -9z m-441 -184 c10 -91
16 -169 13 -171 -6 -6 -299 -54 -303 -50 -3 3 -31 221 -39 298 l-6 67 98 7
c55 3 106 8 114 9 8 2 35 4 60 5 l45 1 18 -166z m6222 156 c14 -23 -140 -340
-165 -340 -21 0 -20 24 3 59 43 65 93 170 130 274 7 19 22 22 32 7z m189 -58
c14 -23 -151 -367 -186 -388 -5 -3 -14 -2 -20 4 -7 7 1 29 25 69 49 81 100
187 127 261 21 56 40 76 54 54z m-7339 -69 c4 -38 15 -129 25 -203 9 -74 16
-136 15 -138 -6 -7 -301 -49 -307 -43 -10 9 -60 410 -53 419 2 2 68 9 147 16
78 8 148 14 155 15 7 1 14 -24 18 -66z m4185 31 c6 -14 10 -31 10 -39 0 -15
-180 -79 -191 -67 -3 4 -11 22 -17 39 l-11 33 92 29 c114 36 106 36 117 5z
m3335 -24 c9 -15 -66 -198 -124 -302 -67 -121 -87 -146 -101 -132 -8 8 -2 25
23 65 62 97 127 236 172 367 5 14 21 16 30 2z m-3844 -92 c6 -24 13 -46 15
-49 2 -4 -34 -19 -81 -33 -47 -15 -92 -29 -100 -32 -15 -6 -31 23 -42 77 -5
25 -1 27 84 52 48 14 93 26 100 26 7 1 17 -18 24 -41z m4318 -20 c438 -265
721 -643 813 -1086 32 -155 32 -438 0 -601 -79 -392 -279 -758 -563 -1025 -50
-47 -94 -86 -98 -86 -5 0 -102 142 -172 253 -4 6 -52 -18 -115 -58 -136 -86
-390 -218 -403 -211 -16 10 -35 80 -23 84 53 17 419 224 481 271 l24 18 -113
167 c-63 91 -117 166 -121 166 -4 0 -49 -26 -100 -59 -52 -32 -151 -89 -221
-125 l-127 -67 -16 31 c-9 17 -15 35 -13 40 2 4 53 34 113 65 99 52 268 153
319 191 19 14 16 21 -84 167 -57 83 -111 162 -120 174 l-17 22 -69 -46 c-81
-55 -313 -183 -331 -183 -7 0 -19 12 -27 27 l-14 27 112 59 c163 87 310 185
298 200 -5 7 -58 82 -117 167 -59 85 -111 159 -115 163 -4 5 -63 -25 -131 -66
-68 -41 -152 -88 -186 -106 l-63 -31 -16 25 c-9 14 -15 27 -13 29 2 1 48 26
101 54 156 82 279 162 271 175 -20 35 -246 347 -251 347 -3 0 -37 -20 -76 -44
-39 -24 -112 -64 -163 -90 -88 -44 -93 -45 -103 -27 -5 11 -10 22 -10 24 0 3
30 19 66 36 63 30 208 115 248 145 17 14 12 24 -99 176 -64 89 -114 167 -112
174 5 12 55 42 60 35 79 -100 932 -1145 936 -1147 4 -1 33 20 66 48 32 27 62
50 66 50 4 0 36 -31 73 -70 36 -38 70 -70 74 -70 27 0 348 358 340 379 -1 5
-38 36 -80 69 l-77 59 46 62 c25 35 42 66 37 70 -6 6 -178 124 -212 146 -1 1
24 45 57 97 60 96 161 288 161 307 0 17 -132 74 -141 60 -10 -16 -49 -1 -58
23 -9 26 -131 81 -148 67 -15 -13 -57 7 -50 24 27 64 78 201 88 235 7 23 16
42 22 42 5 0 48 -23 96 -52z m-3305 -113 c9 -13 16 -26 16 -29 0 -11 -143
-107 -154 -103 -6 3 -18 17 -26 32 -13 23 -13 28 0 36 8 4 42 26 75 48 33 22
63 40 66 40 4 1 14 -10 23 -24z m51 -71 c9 -14 13 -30 8 -34 -4 -5 -37 -32
-73 -60 l-65 -52 -22 29 c-13 15 -22 31 -20 35 2 8 139 107 148 108 4 0 14
-12 24 -26z m-675 -25 c12 -23 20 -42 18 -44 -2 -1 -43 -23 -91 -47 l-88 -46
-22 46 c-13 26 -18 47 -12 49 6 2 46 21 90 42 44 22 81 40 82 40 2 1 12 -17
23 -40z m737 -75 c-7 -6 -38 -35 -70 -64 l-57 -53 -25 23 c-14 13 -24 30 -23
36 2 7 34 37 73 68 l70 55 22 -27 c16 -20 19 -30 10 -38z m-347 10 c22 -34 22
-36 4 -49 -11 -7 -44 -31 -75 -54 l-57 -40 -26 39 -26 40 77 50 c43 27 79 50
80 50 1 0 11 -16 23 -36z m-981 -26 c12 -28 20 -52 19 -53 -22 -12 -173 -75
-182 -75 -11 0 -47 82 -46 105 1 9 151 73 176 74 6 1 21 -22 33 -51z m4316 10
c17 -8 24 -17 20 -27 -15 -41 -150 -261 -160 -261 -6 0 -19 6 -29 13 -16 12
-14 19 33 95 28 45 63 107 78 137 15 30 28 55 30 55 1 0 14 -5 28 -12z m-2943
-15 c10 -9 18 -21 18 -27 0 -11 -120 -136 -130 -136 -4 0 -16 13 -28 29 l-22
30 63 60 c34 33 66 61 71 61 5 0 18 -7 28 -17z m-333 -49 c12 -15 21 -29 20
-33 0 -8 -113 -99 -131 -106 -15 -6 -62 49 -56 65 4 13 121 99 135 99 6 1 21
-11 32 -25z m398 -56 c-9 -13 -37 -45 -61 -73 l-45 -50 -28 27 -27 28 29 32
c16 18 45 50 65 71 l34 37 25 -24 c23 -23 23 -26 8 -48z m-643 11 c15 -22 26
-42 24 -43 -2 -2 -88 -63 -191 -136 -177 -125 -189 -132 -202 -114 -28 38 -50
87 -40 91 6 2 93 57 195 123 102 66 186 120 186 120 1 0 14 -18 28 -41z m3729
8 c16 -11 11 -23 -55 -139 -40 -70 -82 -139 -93 -154 -20 -26 -20 -26 -42 -8
l-22 19 50 80 c28 44 66 110 85 148 35 68 47 77 77 54z m-3461 -134 l-67 -61
-27 26 c-15 15 -28 32 -30 38 -2 6 28 36 66 68 l69 56 28 -32 28 -33 -67 -62z
m538 64 c0 -6 -230 -350 -305 -454 -4 -6 -110 79 -110 87 0 5 76 104 169 220
l168 210 39 -28 c21 -15 39 -31 39 -35z m-736 -31 l26 -35 -182 -147 -181
-148 -34 40 c-18 21 -32 45 -31 53 3 14 345 269 364 270 7 1 23 -14 38 -33z
m309 -14 l27 -28 -69 -68 -68 -67 -26 31 c-15 17 -27 35 -27 40 0 9 121 120
131 120 3 0 17 -13 32 -28z m2677 -31 c24 -19 24 -20 6 -40 -18 -20 -18 -20
-62 17 -46 38 -52 50 -32 70 11 11 19 7 88 -47z m-280 -66 c-16 -20 -18 -19
-64 33 -33 36 -36 44 -25 58 11 13 18 10 57 -30 39 -39 44 -47 32 -61z m-2327
27 l27 -28 -57 -64 c-31 -36 -59 -65 -63 -65 -3 0 -21 13 -40 28 l-33 28 64
65 c35 35 66 64 69 64 4 0 18 -13 33 -28z m-1398 -66 c16 -30 27 -57 25 -59
-3 -3 -44 -26 -92 -51 l-87 -47 -31 61 c-17 34 -30 64 -28 65 5 5 172 84 178
85 3 0 19 -24 35 -54z m2159 -7 c5 -4 6 -15 3 -23 -5 -13 -12 -13 -39 -4 -42
14 -52 23 -45 42 5 13 12 13 39 4 18 -6 37 -14 42 -19z m-996 -12 l32 -33
-162 -168 -163 -168 -42 44 -43 44 168 156 c92 86 169 157 173 157 3 1 20 -14
37 -32z m-632 -25 l31 -48 -74 -53 c-41 -29 -76 -51 -77 -50 -17 22 -66 99
-66 103 0 8 132 95 145 95 6 1 24 -21 41 -47z m1288 15 c17 -13 16 -17 -19
-88 -21 -41 -39 -76 -41 -78 -2 -2 -16 1 -30 8 -19 8 -24 16 -19 29 13 35 76
142 84 142 4 0 15 -6 25 -13z m840 -39 c4 -22 37 -353 36 -372 0 -15 133 3
256 34 64 17 118 29 119 28 1 -2 5 -13 9 -24 6 -20 0 -23 -71 -43 -43 -12
-123 -29 -178 -38 -55 -9 -103 -19 -107 -22 -6 -6 35 -428 43 -435 8 -7 194
25 306 53 94 24 115 27 119 15 2 -8 6 -20 8 -28 4 -11 -11 -20 -52 -32 -73
-21 -279 -64 -312 -64 -49 -1 -49 -2 -24 -224 14 -116 26 -211 27 -213 6 -6
197 28 326 58 142 33 150 32 151 -18 0 -19 -12 -24 -107 -47 -60 -14 -159 -34
-221 -45 -63 -10 -115 -21 -117 -23 -5 -4 43 -410 49 -415 5 -5 235 36 351 63
175 41 161 42 169 -1 4 -20 6 -38 4 -40 -9 -8 -268 -66 -363 -81 -60 -9 -114
-20 -119 -25 -8 -7 28 -339 42 -385 l7 -21 140 23 c77 13 203 40 281 59 77 19
143 35 146 35 6 0 31 -81 26 -85 -9 -9 -349 -87 -446 -102 l-114 -17 5 -33 c3
-18 4 -33 2 -33 -13 0 -212 73 -267 98 l-66 30 -6 94 c-8 117 -116 2229 -116
2269 0 26 3 29 30 29 23 0 31 -5 34 -22z m-1391 -72 c-17 -28 -287 -331 -297
-334 -6 -1 -28 15 -49 36 l-38 39 162 167 162 167 33 -32 c18 -18 30 -37 27
-43z m-648 -26 c25 -36 26 -42 12 -53 -8 -6 -41 -32 -71 -56 -31 -24 -58 -42
-59 -40 -2 2 -20 25 -41 51 l-37 46 73 55 c47 35 77 51 84 45 7 -4 24 -26 39
-48z m-321 -25 c20 -30 36 -57 36 -59 0 -6 -125 -95 -144 -102 -17 -6 -94 101
-82 114 4 4 40 28 79 54 40 25 72 47 73 47 1 1 18 -24 38 -54z m1778 29 c37
-12 45 -19 41 -35 -3 -10 -10 -22 -15 -25 -9 -6 -98 14 -98 22 0 4 23 54 25
54 1 0 22 -7 47 -16z m1907 -130 l-21 -22 -40 44 c-40 43 -40 45 -23 64 19 20
19 20 62 -22 l43 -42 -21 -22z m-3284 29 c19 -21 35 -42 35 -48 0 -5 -29 -36
-65 -68 l-65 -58 -32 37 c-54 60 -54 63 -12 98 21 17 50 41 64 53 14 12 28 23
32 23 4 0 23 -17 43 -37z m1100 5 c14 -6 25 -15 25 -20 0 -9 -59 -149 -66
-157 -7 -8 -65 23 -61 33 15 37 70 156 73 156 2 0 15 -5 29 -12z m2485 -68 c0
-4 -9 -15 -20 -25 -19 -17 -21 -17 -65 20 l-46 37 22 24 22 23 43 -36 c24 -19
44 -39 44 -43z m-4176 0 c21 -34 37 -62 35 -64 -9 -7 -355 -253 -366 -259 -8
-5 -29 17 -60 64 -38 57 -44 72 -33 79 8 5 96 61 195 124 99 63 182 115 185
116 3 0 22 -27 44 -60z m4392 29 c22 -17 40 -32 42 -34 5 -5 -29 -55 -38 -55
-4 0 -27 18 -51 39 -44 39 -44 39 -25 60 25 27 26 27 72 -10z m-4104 -31 l37
-51 -75 -60 c-41 -33 -77 -57 -80 -54 -3 2 -23 28 -44 57 l-40 53 73 53 c39
29 77 53 82 53 6 0 27 -23 47 -51z m910 -13 c32 -22 57 -44 58 -48 0 -12 -292
-437 -301 -437 -3 0 -41 25 -83 56 l-76 56 37 47 c21 26 96 120 167 209 72 89
132 161 136 160 3 -2 31 -21 62 -43z m-507 -35 l39 -40 -64 -65 -65 -65 -45
45 -45 46 62 59 c33 33 65 60 70 60 5 0 27 -18 48 -40z m1225 26 c25 -8 44
-18 43 -22 -4 -24 -116 -440 -119 -446 -3 -4 -25 0 -49 9 -51 17 -53 22 -35
148 12 83 90 325 105 325 5 0 30 -7 55 -14z m508 -108 l3 -78 -52 0 -52 0 7
46 c3 26 6 62 6 81 0 34 0 34 43 31 l42 -3 3 -77z m-983 60 c14 -6 25 -14 25
-18 0 -4 -19 -41 -41 -83 l-42 -76 -28 14 c-15 8 -30 19 -34 25 -7 11 72 150
86 150 4 0 20 -5 34 -12z m-1015 -98 c0 -8 -140 -133 -144 -129 -56 64 -86
103 -84 109 2 4 34 33 72 64 l69 57 43 -48 c24 -26 43 -50 44 -53z m-326 31
l45 -58 -172 -138 c-95 -76 -177 -142 -184 -147 -7 -6 -26 10 -57 50 -25 33
-46 64 -48 70 -2 8 352 278 369 282 1 0 22 -26 47 -59z m694 -9 l43 -37 -56
-65 c-31 -36 -60 -66 -64 -68 -4 -1 -29 16 -55 39 l-47 42 62 63 c35 35 66 64
69 64 3 0 24 -17 48 -38z m895 -43 c12 -7 24 -13 26 -15 4 -3 -49 -146 -58
-157 -10 -11 -71 13 -71 28 0 21 62 155 72 155 5 0 19 -5 31 -11z m-1216 -166
l-67 -68 -52 53 -53 53 70 64 70 64 50 -50 50 -49 -68 -67z m-855 -4 c-29 -25
-364 -259 -371 -259 -7 0 -29 31 -95 131 l-17 27 197 126 197 126 48 -72 c27
-40 45 -75 41 -79z m989 10 l49 -41 -26 -31 c-15 -18 -44 -51 -64 -75 l-38
-43 -54 50 -53 50 65 65 c35 36 66 66 68 66 2 0 26 -18 53 -41z m605 10 c19
-11 34 -22 34 -24 0 -3 -21 -38 -46 -79 l-45 -75 -40 26 c-36 24 -38 27 -26
47 8 12 29 45 46 74 18 28 35 52 38 52 3 0 21 -9 39 -21z m1214 -84 l0 -95
-55 0 -55 0 0 58 c0 31 3 74 6 95 7 37 7 37 55 37 l49 0 0 -95z m-894 52 c3
-2 -65 -159 -71 -165 -4 -5 -75 31 -75 38 0 4 16 42 35 84 l36 76 36 -15 c20
-9 38 -17 39 -18z m-1204 -31 l46 -53 -164 -164 -164 -164 -55 55 c-31 30 -54
60 -53 67 3 12 327 313 337 313 3 0 27 -24 53 -54z m1742 39 c28 -6 29 -6 22
-63 -13 -106 -12 -105 -70 -97 -28 3 -52 7 -53 8 -2 3 25 136 32 154 2 6 12
10 22 8 10 -2 31 -7 47 -10z m-2381 -72 c24 -32 47 -63 50 -70 5 -7 -59 -65
-174 -158 -100 -80 -182 -145 -184 -143 -1 2 -28 36 -59 77 -46 60 -54 77 -44
86 14 14 360 265 364 265 2 0 23 -26 47 -57z m770 -92 c20 -19 37 -38 37 -42
0 -6 -187 -226 -296 -348 -5 -6 -115 90 -121 105 -3 8 61 82 153 178 130 134
162 162 174 153 8 -6 32 -27 53 -46z m-634 -76 c28 -33 51 -62 51 -65 0 -6
-328 -304 -339 -308 -9 -3 -118 118 -123 136 -3 11 341 303 353 299 4 -1 30
-29 58 -62z m1861 -72 c0 -76 7 -195 16 -264 l16 -125 -43 -165 c-23 -90 -45
-167 -49 -172 -11 -13 -225 59 -222 74 9 45 268 789 275 789 4 0 7 -62 7 -137z
m119 96 c17 -6 31 -13 31 -15 0 -3 -17 -71 -37 -152 -43 -172 -49 -168 -59 46
-8 148 -8 146 65 121z m-272 -50 l23 -8 -21 -53 c-12 -29 -26 -66 -32 -83 -5
-16 -11 -31 -12 -33 -1 -1 -23 6 -48 17 l-47 20 21 48 c11 26 27 63 35 81 14
35 16 35 81 11z m516 -19 c4 -4 2 -46 -5 -94 l-12 -88 -56 7 c-30 4 -58 10
-62 13 -6 6 14 130 28 170 3 10 16 11 51 6 27 -3 52 -10 56 -14z m-953 -10
c22 -11 40 -24 40 -29 0 -10 -67 -131 -80 -145 -9 -9 -90 32 -90 47 0 10 80
147 87 147 2 0 22 -9 43 -20z m-1810 -87 c29 -36 53 -73 54 -81 0 -8 -78 -80
-176 -158 l-176 -144 -66 86 c-36 48 -66 89 -65 93 0 7 360 269 371 270 3 1
30 -29 58 -66z m712 -46 l21 -29 -164 -164 -164 -164 -67 67 c-38 37 -67 70
-66 74 2 4 79 77 173 163 l169 156 39 -38 c21 -20 48 -50 59 -65z m1308 23
c22 -11 40 -24 40 -29 0 -8 -59 -143 -66 -150 -6 -6 -94 30 -94 39 0 11 71
160 77 160 2 0 22 -9 43 -20z m-2569 -81 c33 -50 57 -94 52 -99 -24 -21 -123
-90 -130 -90 -7 0 -63 77 -117 161 l-17 27 72 46 c40 25 74 46 76 46 1 0 30
-41 64 -91z m698 -80 c33 -39 61 -74 61 -79 0 -10 -328 -310 -339 -310 -4 0
-38 36 -76 81 -44 52 -64 84 -58 90 8 8 345 286 349 288 1 1 29 -31 63 -70z
m1646 9 c25 -12 45 -26 45 -30 0 -7 -68 -148 -75 -156 -2 -2 -26 8 -54 23
l-52 26 43 79 c24 44 44 80 45 80 1 0 23 -10 48 -22z m-2567 -78 c34 -50 62
-94 62 -98 -1 -9 -145 -112 -157 -112 -9 0 -133 185 -133 197 0 10 141 103
155 103 6 0 39 -41 73 -90z m376 -65 c36 -47 66 -87 66 -88 0 -5 -129 -107
-134 -107 -8 0 -136 171 -136 181 0 8 120 98 132 99 3 0 36 -38 72 -85z m3526
-15 l0 -90 -76 0 c-65 0 -75 2 -70 16 3 9 6 49 6 90 l0 74 70 0 70 0 0 -90z
m-1070 34 c22 -9 40 -21 40 -27 0 -11 -49 -148 -56 -156 -7 -8 -104 34 -104
45 0 19 62 154 71 154 5 0 27 -7 49 -16z m-1746 -63 l68 -68 -166 -169 -166
-169 -75 78 c-41 43 -75 82 -74 85 1 8 332 312 339 312 3 0 36 -31 74 -69z
m-924 -116 c40 -53 71 -98 69 -100 -19 -18 -146 -115 -151 -115 -8 0 -148 178
-148 188 0 5 129 105 156 121 1 1 34 -42 74 -94z m380 -44 l74 -84 -65 -59
-64 -58 -58 62 c-32 35 -67 75 -78 89 l-19 27 68 55 c37 31 67 55 68 54 0 -1
34 -40 74 -86z m771 -68 c0 -4 -66 -85 -148 -179 -125 -146 -150 -170 -164
-160 -9 6 -46 39 -84 73 l-68 63 163 170 162 170 70 -64 c38 -36 69 -68 69
-73z m2530 47 l59 0 0 -85 0 -85 -80 0 -80 0 0 38 c0 20 3 61 7 90 4 40 9 52
20 48 8 -4 41 -6 74 -6z m-3506 -151 l79 -92 -69 -63 c-39 -35 -75 -63 -81
-61 -17 3 -156 167 -152 178 2 7 105 99 144 129 0 0 36 -41 79 -91z m397 -161
l-62 -63 -82 83 -83 82 65 59 65 60 80 -80 80 -79 -63 -62z m-210 -45 c43 -43
78 -81 78 -86 0 -14 -122 -137 -135 -137 -6 0 -47 39 -90 86 l-79 86 66 64
c36 35 70 64 74 64 5 0 44 -35 86 -77z m382 3 c90 -82 89 -70 9 -161 l-43 -48
-85 78 -86 78 28 31 c70 78 87 96 92 96 4 -1 42 -34 85 -74z m2482 54 c15 0
32 -16 54 -49 28 -44 31 -55 24 -96 -6 -41 -9 -46 -28 -42 -11 3 -47 9 -79 12
-31 4 -60 12 -63 17 -5 8 10 121 22 157 3 8 12 11 27 7 12 -3 32 -6 43 -6z
m-2588 -322 c8 -10 -6 -31 -51 -85 -34 -39 -65 -72 -68 -72 -4 -1 -46 37 -95
83 l-89 84 69 71 69 70 77 -69 c43 -38 82 -75 88 -82z m2616 25 l28 -6 -6 -66
c-11 -105 -14 -113 -45 -107 -14 3 -49 8 -76 11 -80 10 -80 10 -64 105 l13 82
60 -7 c34 -3 74 -9 90 -12z m-353 -498 c46 -9 85 -18 86 -19 3 -3 -26 -158
-30 -162 -3 -3 -201 37 -206 42 -4 3 28 143 36 157 3 5 10 6 17 4 7 -3 50 -13
97 -22z m-65 -275 c54 -11 98 -21 100 -23 1 -1 -5 -41 -14 -89 -14 -78 -18
-88 -36 -88 -25 0 -197 38 -204 45 -4 4 3 41 29 138 5 20 14 37 18 37 5 0 53
-9 107 -20z m4022 -1621 c1 -8 -8 -31 -20 -50 -18 -25 -32 -35 -56 -37 -36 -4
-48 13 -38 53 11 45 106 74 114 34z m-586 -256 c25 -23 23 -37 -13 -67 -39
-33 -99 -37 -99 -6 0 24 57 90 78 90 8 0 24 -7 34 -17z m-496 -188 c16 -25 16
-27 -6 -50 -46 -49 -134 -41 -109 9 15 29 60 66 81 66 10 0 25 -11 34 -25z
m-238 -57 c16 -16 15 -53 -2 -67 -20 -17 -78 -32 -98 -25 -28 9 -21 39 17 73
38 33 63 39 83 19z"/>
<path d="M2818 4829 l-57 -39 42 -61 c34 -49 46 -59 63 -55 18 5 38 -16 125
-132 136 -179 255 -318 403 -470 104 -107 119 -125 109 -141 -10 -16 -2 -27
51 -80 l63 -62 47 52 46 52 -137 136 c-226 223 -425 458 -605 714 -50 70 -91
127 -91 126 -1 0 -28 -18 -59 -40z"/>
<path d="M2781 4615 c-35 -24 -66 -47 -69 -49 -6 -7 208 -290 308 -406 45 -52
140 -157 212 -233 l131 -138 58 57 c33 32 59 63 59 69 0 6 -43 53 -96 105
-127 126 -305 333 -433 503 -56 75 -103 137 -104 137 -1 0 -31 -20 -66 -45z"/>
</g>
</svg>
